<?xml version="1.0" standalone="no"?>
<!DOCTYPE svg PUBLIC "-//W3C//DTD SVG 1.1//EN" "http://www.w3.org/Graphics/SVG/1.1/DTD/svg11.dtd">
<svg width="16" height="18" viewBox="-8 -9 16 18" xmlns="http://www.w3.org/2000/svg" version="1.1">
<title>OpenSCAD Model</title>
<path d="
M -0.256439,-7.56917 L -0.356705,-7.67694 L -0.467072,-7.77437 L -0.586441,-7.86049 L -0.713684,-7.93451 L -0.847565,-7.9957
 L -0.986801,-8.04347 L -1.13004,-8.07738 L -1.27592,-8.09706 L -1.42303,-8.10236 L -1.56995,-8.09322 L -1.71527,-8.06972
 L -1.85757,-8.03207 L -1.99551,-7.98068 L -2.12775,-7.916 L -2.25301,-7.83868 L -2.37009,-7.74945 L -2.47784,-7.64917
 L -2.57527,-7.53882 L -2.66141,-7.41945 L -2.73543,-7.29221 L -2.79662,-7.15833 L -2.84439,-7.01909 L -2.87828,-6.87584
 L -2.89796,-6.72997 L -2.90327,-6.58286 L -2.89412,-6.43593 L -2.87062,-6.29062 L -2.83298,-6.14832 L -2.78159,-6.01038
 L -2.7169,-5.87814 L -2.63959,-5.75288 L -2.55035,-5.6358 L -2.45009,-5.52803 L -2.33972,-5.43062 L -2.22035,-5.34448
 L -2.09311,-5.27046 L -1.95923,-5.20927 L -1.81999,-5.1615 L -1.67674,-5.12761 L -1.53087,-5.10791 L -1.38376,-5.10262
 L -1.23685,-5.11177 L -1.09152,-5.13527 L -0.949219,-5.1729 L -0.811279,-5.2243 L -0.679047,-5.28897 L -0.553787,-5.3663
 L -0.436707,-5.45554 L -0.328949,-5.5558 L -0.231522,-5.66615 L -0.145386,-5.78554 L -0.0713654,-5.91277 L -0.0322266,-5.99841
 L 0,-6 L 0.588089,-5.9711 L 1.17053,-5.8847 L 1.4626,-5.81154 L 1.50218,-5.7516 L 1.56403,-5.67542
 L 1.63304,-5.60564 L 1.70856,-5.54297 L 1.78986,-5.48801 L 1.87614,-5.44127 L 1.96661,-5.40323 L 2.06036,-5.37422
 L 2.15651,-5.35455 L 2.25412,-5.34441 L 2.35225,-5.34387 L 2.44997,-5.35295 L 2.54631,-5.37158 L 2.64038,-5.39955
 L 2.73125,-5.43661 L 2.81804,-5.48239 L 2.89993,-5.53647 L 2.97614,-5.59831 L 3.0459,-5.66733 L 3.10858,-5.74284
 L 3.16354,-5.82414 L 3.21027,-5.91043 L 3.24832,-6.0009 L 3.27731,-6.09465 L 3.297,-6.1908 L 3.30714,-6.28841
 L 3.30768,-6.38654 L 3.29858,-6.48425 L 3.27997,-6.5806 L 3.252,-6.67467 L 3.21494,-6.76553 L 3.16914,-6.85234
 L 3.11507,-6.93423 L 3.05324,-7.01042 L 2.98422,-7.0802 L 2.90871,-7.14287 L 2.82741,-7.19783 L 2.7411,-7.24457
 L 2.65065,-7.28261 L 2.5569,-7.31161 L 2.46075,-7.33128 L 2.36314,-7.34143 L 2.26501,-7.34196 L 2.1673,-7.33289
 L 2.07094,-7.31425 L 1.97688,-7.28629 L 1.88715,-7.24968 L 1.46317,-7.35588 L 0.735123,-7.46388 L 0,-7.5
 L -0.196365,-7.49036 z
M 6.59593,-0.596252 L 6.74109,-0.620712 L 6.88315,-0.659271 L 7.02075,-0.711578 L 7.15256,-0.777115 L 7.27731,-0.855255
 L 7.3938,-0.945251 L 7.5009,-1.04622 L 7.5976,-1.15721 L 7.68295,-1.27715 L 7.75613,-1.40488 L 7.81645,-1.53915
 L 7.86331,-1.6787 L 7.89627,-1.82216 L 7.91499,-1.96817 L 7.91934,-2.11531 L 7.90923,-2.26216 L 7.88477,-2.40732
 L 7.84621,-2.54938 L 7.7939,-2.68698 L 7.72836,-2.81879 L 7.65022,-2.94354 L 7.56023,-3.06003 L 7.45926,-3.16714
 L 7.34827,-3.26384 L 7.22833,-3.34918 L 7.10062,-3.42236 L 6.96632,-3.48268 L 6.82678,-3.52954 L 6.68332,-3.5625
 L 6.59111,-3.57434 L 6.23601,-4.16676 L 5.79758,-4.75793 L 5.33333,-5.27017 L 5.32167,-5.35518 L 5.29886,-5.45062
 L 5.26682,-5.54338 L 5.22581,-5.63254 L 5.17628,-5.71725 L 5.1187,-5.79672 L 5.05359,-5.87015 L 4.9816,-5.93684
 L 4.90341,-5.99615 L 4.81979,-6.04752 L 4.73155,-6.09044 L 4.63951,-6.12451 L 4.54459,-6.1494 L 4.44768,-6.16486
 L 4.34972,-6.17073 L 4.25165,-6.16699 L 4.15443,-6.15364 L 4.05898,-6.13084 L 3.96623,-6.09879 L 3.87706,-6.0578
 L 3.79234,-6.00827 L 3.71289,-5.95068 L 3.63945,-5.88557 L 3.57277,-5.81358 L 3.51344,-5.7354 L 3.46208,-5.65178
 L 3.41916,-5.56354 L 3.38509,-5.4715 L 3.36021,-5.37657 L 3.34476,-5.27966 L 3.33887,-5.1817 L 3.34262,-5.08363
 L 3.35596,-4.98642 L 3.37875,-4.89096 L 3.41081,-4.7982 L 3.4518,-4.70905 L 3.50133,-4.62433 L 3.55893,-4.54488
 L 3.62402,-4.47144 L 3.69601,-4.40475 L 3.7742,-4.34543 L 3.85782,-4.29407 L 3.94608,-4.25114 L 4.0381,-4.21707
 L 4.13303,-4.1922 L 4.22993,-4.17674 L 4.30652,-4.17213 L 4.63806,-3.80635 L 4.98882,-3.33342 L 5.20816,-2.96744
 L 5.1563,-2.89456 L 5.08311,-2.76685 L 5.0228,-2.63257 L 4.97594,-2.49301 L 4.94298,-2.34955 L 4.92426,-2.20355
 L 4.91991,-2.05641 L 4.93002,-1.90955 L 4.95447,-1.76439 L 4.99304,-1.62233 L 5.04535,-1.48474 L 5.11089,-1.35292
 L 5.18903,-1.22818 L 5.27902,-1.11168 L 5.37999,-1.00458 L 5.49098,-0.907883 L 5.61092,-0.822525 L 5.73863,-0.749344
 L 5.87292,-0.689041 L 6.01247,-0.642181 L 6.15593,-0.609222 L 6.30194,-0.590485 L 6.44908,-0.586151 z
M -4.80098,6.0011 L -4.65651,5.97285 L -4.5155,5.93059 L -4.37933,5.87469 L -4.24928,5.80574 L -4.12662,5.72435
 L -4.01253,5.63135 L -3.9081,5.52759 L -3.81435,5.41411 L -3.73216,5.29198 L -3.66234,5.16238 L -3.60556,5.02658
 L -3.56238,4.88585 L -3.53319,4.74158 L -3.51828,4.59512 L -3.51779,4.44792 L -3.53174,4.30139 L -3.55998,4.15692
 L -3.60226,4.01591 L -3.65814,3.87973 L -3.72711,3.74968 L -3.80849,3.62703 L -3.9015,3.51292 L -4.00525,3.40849
 L -4.11873,3.31474 L -4.24086,3.23256 L -4.37045,3.16275 L -4.50627,3.10597 L -4.64699,3.06277 L -4.79128,3.03358
 L -4.93771,3.01868 L -5.08492,3.0182 L -5.17273,3.02657 L -5.29152,2.82837 L -5.54327,2.2961 L -5.74164,1.7417
 L -5.8847,1.17053 L -5.9711,0.588089 L -6,-0 L -5.9711,-0.588089 L -5.8847,-1.17053 L -5.74164,-1.7417
 L -5.54327,-2.2961 L -5.29152,-2.82837 L -5.17273,-3.02657 L -5.08492,-3.0182 L -4.93771,-3.01868 L -4.79128,-3.03358
 L -4.64699,-3.06277 L -4.50627,-3.10597 L -4.37045,-3.16275 L -4.24086,-3.23256 L -4.11873,-3.31474 L -4.00525,-3.40849
 L -3.9015,-3.51292 L -3.80849,-3.62703 L -3.72711,-3.74968 L -3.65814,-3.87973 L -3.60226,-4.01591 L -3.55998,-4.15692
 L -3.53174,-4.30139 L -3.51779,-4.44792 L -3.51828,-4.59512 L -3.53319,-4.74158 L -3.56238,-4.88585 L -3.60556,-5.02658
 L -3.66234,-5.16238 L -3.73216,-5.29198 L -3.81435,-5.41411 L -3.9081,-5.52759 L -4.01253,-5.63135 L -4.12662,-5.72435
 L -4.24928,-5.80574 L -4.37933,-5.87469 L -4.5155,-5.93059 L -4.65651,-5.97285 L -4.80098,-6.0011 L -4.94753,-6.01505
 L -5.09473,-6.01457 L -5.24117,-5.99966 L -5.38545,-5.97047 L -5.52617,-5.92728 L -5.66199,-5.8705 L -5.79158,-5.80069
 L -5.91371,-5.71851 L -6.02719,-5.62474 L -6.13094,-5.52032 L -6.22395,-5.40622 L -6.30533,-5.28357 L -6.3743,-5.15352
 L -6.43018,-5.01733 L -6.47246,-4.87633 L -6.5007,-4.73186 L -6.51465,-4.58533 L -6.51416,-4.43813 L -6.49925,-4.29167
 L -6.47006,-4.1474 L -6.42688,-4.00667 L -6.38788,-3.91338 L -6.6144,-3.53546 L -6.92909,-2.87012 L -7.17705,-2.17712
 L -7.35588,-1.46317 L -7.46388,-0.735123 L -7.5,-0 L -7.46388,0.735123 L -7.35588,1.46317 L -7.17705,2.17712
 L -6.92909,2.87012 L -6.6144,3.53546 L -6.38788,3.91338 L -6.42688,4.00667 L -6.47006,4.1474 L -6.49925,4.29167
 L -6.51416,4.43813 L -6.51465,4.58533 L -6.5007,4.73186 L -6.47246,4.87633 L -6.43018,5.01733 L -6.3743,5.15352
 L -6.30533,5.28357 L -6.22395,5.40622 L -6.13094,5.52032 L -6.02719,5.62474 L -5.91371,5.71851 L -5.79158,5.80069
 L -5.66199,5.8705 L -5.52617,5.92728 L -5.38545,5.97047 L -5.24117,5.99966 L -5.09473,6.01457 L -4.94753,6.01505
 z
M -1.27592,8.09706 L -1.13004,8.07738 L -0.986801,8.04347 L -0.847565,7.9957 L -0.713684,7.93451 L -0.586441,7.86049
 L -0.467072,7.77437 L -0.356705,7.67694 L -0.256439,7.56917 L -0.196365,7.49036 L 0,7.5 L 0.735123,7.46388
 L 1.46317,7.35588 L 2.17712,7.17705 L 2.87012,6.92909 L 3.53546,6.6144 L 4.16676,6.23601 L 4.75793,5.79758
 L 5.3033,5.3033 L 5.79758,4.75793 L 6.23601,4.16676 L 6.59111,3.57434 L 6.68332,3.5625 L 6.82678,3.52954
 L 6.96632,3.48268 L 7.10062,3.42236 L 7.22833,3.34918 L 7.34827,3.26384 L 7.45926,3.16714 L 7.56023,3.06003
 L 7.65022,2.94354 L 7.72836,2.81879 L 7.7939,2.68698 L 7.84621,2.54938 L 7.88477,2.40732 L 7.90923,2.26216
 L 7.91934,2.11531 L 7.91499,1.96817 L 7.89627,1.82216 L 7.86331,1.6787 L 7.81645,1.53915 L 7.75613,1.40488
 L 7.68295,1.27715 L 7.5976,1.15721 L 7.5009,1.04622 L 7.3938,0.945251 L 7.27731,0.855255 L 7.15256,0.777115
 L 7.02075,0.711578 L 6.88315,0.659271 L 6.74109,0.620712 L 6.59593,0.596252 L 6.44908,0.586151 L 6.30194,0.590485
 L 6.15593,0.609222 L 6.01247,0.642181 L 5.87292,0.689041 L 5.73863,0.749344 L 5.61092,0.822525 L 5.49098,0.907883
 L 5.37999,1.00458 L 5.27902,1.11168 L 5.18903,1.22818 L 5.11089,1.35292 L 5.04535,1.48474 L 4.99304,1.62233
 L 4.95447,1.76439 L 4.93002,1.90955 L 4.91991,2.05641 L 4.92426,2.20355 L 4.94298,2.34955 L 4.97594,2.49301
 L 5.0228,2.63257 L 5.08311,2.76685 L 5.1563,2.89456 L 5.20816,2.96744 L 4.98882,3.33342 L 4.63806,3.80635
 L 4.24263,4.24263 L 3.80635,4.63806 L 3.33342,4.98882 L 2.82837,5.29152 L 2.2961,5.54327 L 1.7417,5.74164
 L 1.17053,5.8847 L 0.588089,5.9711 L 0,6 L -0.0322266,5.99841 L -0.0713654,5.91277 L -0.145386,5.78554
 L -0.231522,5.66615 L -0.328949,5.5558 L -0.436707,5.45554 L -0.553787,5.3663 L -0.679047,5.28897 L -0.811279,5.2243
 L -0.949219,5.1729 L -1.09152,5.13527 L -1.23685,5.11177 L -1.38376,5.10262 L -1.53087,5.10791 L -1.67674,5.12761
 L -1.81999,5.1615 L -1.95923,5.20927 L -2.09311,5.27046 L -2.22035,5.34448 L -2.33972,5.43062 L -2.45009,5.52803
 L -2.55035,5.6358 L -2.63959,5.75288 L -2.7169,5.87814 L -2.78159,6.01038 L -2.83298,6.14832 L -2.87062,6.29062
 L -2.89412,6.43593 L -2.90327,6.58286 L -2.89796,6.72997 L -2.87828,6.87584 L -2.84439,7.01909 L -2.79662,7.15833
 L -2.73543,7.29221 L -2.66141,7.41945 L -2.57527,7.53882 L -2.47784,7.64917 L -2.37009,7.74945 L -2.25301,7.83868
 L -2.12775,7.916 L -1.99551,7.98068 L -1.85757,8.03207 L -1.71527,8.06972 L -1.56995,8.09322 L -1.42303,8.10236
 z
" stroke="black" fill="lightgray" stroke-width="0.5"/></svg>
